<svg width="26" height="24" viewBox="0 0 26 24" fill="none" xmlns="http://www.w3.org/2000/svg">
<g clip-path="url(#clip0_101_37)">
<g clip-path="url(#clip1_101_37)">
<rect x="2.75" y="3.75" width="20.5" height="16.5" rx="4.25" stroke="black" stroke-width="1.5"/>
<path d="M10.7209 11.0249C10.6522 10.8094 10.5599 10.6165 10.4439 10.446C10.3303 10.2732 10.1941 10.1264 10.0355 10.0057C9.87689 9.88258 9.69579 9.78906 9.49219 9.72514C9.29096 9.66122 9.0696 9.62926 8.82812 9.62926C8.41856 9.62926 8.04924 9.73461 7.72017 9.94531C7.3911 10.156 7.13068 10.465 6.93892 10.8722C6.74953 11.277 6.65483 11.773 6.65483 12.3601C6.65483 12.9496 6.75071 13.4479 6.94247 13.8551C7.13423 14.2623 7.39702 14.5713 7.73082 14.782C8.06463 14.9927 8.4446 15.098 8.87074 15.098C9.2661 15.098 9.61056 15.0175 9.90412 14.8565C10.2 14.6955 10.4285 14.4683 10.5895 14.1747C10.7528 13.8788 10.8345 13.5308 10.8345 13.1307L11.1186 13.1839H9.03764V12.2784H11.8963V13.1058C11.8963 13.7166 11.7661 14.2469 11.5057 14.6967C11.2476 15.1442 10.8902 15.4898 10.4332 15.7337C9.97869 15.9775 9.45786 16.0994 8.87074 16.0994C8.21259 16.0994 7.63494 15.9479 7.13778 15.6449C6.64299 15.3419 6.2571 14.9122 5.98011 14.3558C5.70313 13.7971 5.56463 13.1342 5.56463 12.3672C5.56463 11.7872 5.64512 11.2663 5.80611 10.8047C5.96709 10.343 6.19318 9.95123 6.48438 9.62926C6.77794 9.30492 7.1224 9.05753 7.51776 8.88707C7.91548 8.71425 8.34991 8.62784 8.82102 8.62784C9.21402 8.62784 9.57978 8.68584 9.91832 8.80185C10.2592 8.91785 10.5623 9.08239 10.8274 9.29545C11.0949 9.50852 11.3163 9.76184 11.4915 10.0554C11.6667 10.3466 11.785 10.6697 11.8466 11.0249H10.7209ZM14.3865 8.72727V16H13.2892V8.72727H14.3865ZM15.9846 16V8.72727H20.4945V9.67188H17.0819V11.8878H20.1713V12.8288H17.0819V16H15.9846Z" fill="black"/>
</g>
</g>
<defs>
<clipPath id="clip0_101_37">
<rect width="26" height="24" fill="white"/>
</clipPath>
<clipPath id="clip1_101_37">
<rect width="26" height="24" fill="white"/>
</clipPath>
</defs>
</svg>
