<svg width="24" height="24" viewBox="0 0 24 24" fill="none" xmlns="http://www.w3.org/2000/svg">
<g clip-path="url(#clip0_101_17)">
<path d="M12 13.8611C12.3802 13.8611 12.7566 13.7844 13.1078 13.6354C13.459 13.4865 13.7781 13.2681 14.0469 12.9928C14.3157 12.7175 14.5289 12.3906 14.6743 12.031C14.8198 11.6713 14.8947 11.2857 14.8947 10.8964C14.8947 10.5071 14.8198 10.1216 14.6743 9.76186C14.5289 9.40216 14.3157 9.07534 14.0469 8.80004C13.7781 8.52474 13.459 8.30636 13.1078 8.15737C12.7566 8.00838 12.3802 7.93169 12 7.93169C11.2323 7.93169 10.496 8.24405 9.95318 8.80004C9.41032 9.35603 9.10535 10.1101 9.10535 10.8964C9.10535 11.6827 9.41032 12.4368 9.95318 12.9928C10.496 13.5488 11.2323 13.8611 12 13.8611Z" stroke="black" stroke-width="1.5"/>
<path d="M4.22522 9.16698C6.05295 0.938006 17.9564 0.947509 19.7748 9.17649C20.8418 14.0036 17.91 18.0896 15.34 20.6172C14.442 21.5043 13.243 22 11.9954 22C10.7477 22 9.54875 21.5043 8.65073 20.6172C6.09006 18.0896 3.15828 13.9941 4.22522 9.16698Z" stroke="black" stroke-width="1.5"/>
</g>
<defs>
<clipPath id="clip0_101_17">
<rect width="24" height="24" fill="white"/>
</clipPath>
</defs>
</svg>
