<svg width="24" height="24" viewBox="0 0 24 24" fill="none" xmlns="http://www.w3.org/2000/svg">
<g clip-path="url(#clip0_101_8)">
<path d="M6 21C6.79565 21 7.55871 20.7053 8.12132 20.1806C8.68393 19.656 9 18.9444 9 18.2024C9 17.4605 8.68393 16.7489 8.12132 16.2243C7.55871 15.6996 6.79565 15.4049 6 15.4049C5.20435 15.4049 4.44129 15.6996 3.87868 16.2243C3.31607 16.7489 3 17.4605 3 18.2024C3 18.9444 3.31607 19.656 3.87868 20.1806C4.44129 20.7053 5.20435 21 6 21Z" stroke="black" stroke-width="1.5" stroke-linecap="round" stroke-linejoin="round"/>
<path d="M20 16.3374V5.39816C20 3.06685 18.4327 2.74405 16.8462 3.14755L10.8462 4.67187C9.75 4.94983 9 5.75682 9 6.92248V18.1935" stroke="black" stroke-width="1.5" stroke-linecap="round" stroke-linejoin="round"/>
<path d="M9 9.80972L20 7.01215M17 19.135C17.7956 19.135 18.5587 18.8402 19.1213 18.3156C19.6839 17.7909 20 17.0793 20 16.3374C20 15.5954 19.6839 14.8838 19.1213 14.3592C18.5587 13.8346 17.7956 13.5398 17 13.5398C16.2043 13.5398 15.4413 13.8346 14.8787 14.3592C14.3161 14.8838 14 15.5954 14 16.3374C14 17.0793 14.3161 17.7909 14.8787 18.3156C15.4413 18.8402 16.2043 19.135 17 19.135Z" stroke="black" stroke-width="1.5" stroke-linecap="round" stroke-linejoin="round"/>
</g>
<defs>
<clipPath id="clip0_101_8">
<rect width="24" height="24" fill="white"/>
</clipPath>
</defs>
</svg>
