<svg width="24" height="24" viewBox="0 0 24 24" fill="none" xmlns="http://www.w3.org/2000/svg">
<path d="M20.3421 20.8947L16.3966 16.3966M10.1698 17.1291C11.0837 17.1291 11.9887 16.9491 12.833 16.5994C13.6774 16.2496 14.4446 15.737 15.0908 15.0908C15.737 14.4446 16.2496 13.6774 16.5994 12.833C16.9491 11.9887 17.1291 11.0837 17.1291 10.1698C17.1291 9.25592 16.9491 8.35096 16.5994 7.50662C16.2496 6.66228 15.737 5.89509 15.0908 5.24886C14.4446 4.60263 13.6774 4.09001 12.833 3.74027C11.9887 3.39053 11.0837 3.21053 10.1698 3.21053C8.32411 3.21053 6.55398 3.94374 5.24886 5.24886C3.94374 6.55398 3.21053 8.32411 3.21053 10.1698C3.21053 12.0155 3.94374 13.7857 5.24886 15.0908C6.55398 16.3959 8.32411 17.1291 10.1698 17.1291Z" stroke="black" stroke-width="1.5" stroke-linecap="round" stroke-linejoin="round"/>
</svg>
