<svg width="24" height="24" viewBox="0 0 24 24" fill="none" xmlns="http://www.w3.org/2000/svg">
<g clip-path="url(#clip0_101_2)">
<path d="M20.9637 12.7756C20.9457 12.9466 20.9187 13.1086 20.8737 13.2705C19.903 12.4493 18.672 11.9996 17.4005 12.0018C14.4222 12.0018 12.0018 14.4223 12.0018 17.4005C12.0018 18.7232 12.4787 19.9379 13.2705 20.8737C13.1086 20.9187 12.9466 20.9457 12.7756 20.9637C12.0108 21.0357 11.228 20.9997 10.4182 20.8647C6.72011 20.2348 3.74183 17.2386 3.12998 13.5315C2.88602 12.1111 2.98647 10.6529 3.42289 9.27937C3.85932 7.90585 4.61897 6.65711 5.63804 5.63804C6.65711 4.61896 7.90585 3.85932 9.27937 3.42289C10.6529 2.98647 12.1111 2.88602 13.5315 3.12998C17.2386 3.74183 20.2348 6.72011 20.8647 10.4182C20.9997 11.228 21.0357 12.0108 20.9637 12.7756Z" stroke="black" stroke-width="1.5" stroke-linecap="round" stroke-linejoin="round"/>
<path d="M21 13.287C20.8722 13.7343 20.6349 14.1359 20.2972 14.4736L14.4736 20.2972C14.1359 20.6349 13.7343 20.8722 13.287 21C12.4539 20.0153 11.9978 18.7666 12 17.4767C12 14.4554 14.4554 12 17.4767 12C18.8185 12 20.0507 12.4838 21 13.287Z" stroke="black" stroke-width="1.5" stroke-linecap="round" stroke-linejoin="round"/>
</g>
<defs>
<clipPath id="clip0_101_2">
<rect width="24" height="24" fill="white"/>
</clipPath>
</defs>
</svg>
