<svg width="24" height="24" viewBox="0 0 24 24" fill="none" xmlns="http://www.w3.org/2000/svg">
<g clip-path="url(#clip0_101_30)">
<path d="M19.8742 21.1667C19.8742 17.6192 16.345 14.75 12 14.75C7.655 14.75 4.12583 17.6192 4.12583 21.1667M12 12C13.2156 12 14.3814 11.5171 15.2409 10.6576C16.1004 9.79803 16.5833 8.63224 16.5833 7.41667C16.5833 6.20109 16.1004 5.0353 15.2409 4.17576C14.3814 3.31622 13.2156 2.83334 12 2.83334C10.7844 2.83334 9.61863 3.31622 8.75909 4.17576C7.89955 5.0353 7.41666 6.20109 7.41666 7.41667C7.41666 8.63224 7.89955 9.79803 8.75909 10.6576C9.61863 11.5171 10.7844 12 12 12Z" stroke="black" stroke-width="1.5" stroke-linecap="round" stroke-linejoin="round"/>
</g>
<defs>
<clipPath id="clip0_101_30">
<rect width="24" height="24" fill="white"/>
</clipPath>
</defs>
</svg>
