<svg width="24" height="24" viewBox="0 0 24 24" fill="none" xmlns="http://www.w3.org/2000/svg">
<g clip-path="url(#clip0_13_27)">
<path d="M4 10V14C4 16 5 17 7 17H8.43C8.8 17 9.17 17.11 9.49 17.3L12.41 19.13C14.93 20.71 16 20.18 17 16.59C18 13 18 11 17 7.41C16 3.82 14.93 3.29 12.41 4.87L9.49 6.7C9.17 6.89 8.8 7 8.43 7H7C5 7 4 8 4 10Z" stroke="black" stroke-width="1.5"/>
<path d="M19.5 7.5V7.5C20.7839 10.7097 20.7839 14.2903 19.5 17.5V17.5" stroke="black" stroke-width="1.5" stroke-linecap="round" stroke-linejoin="round"/>
</g>
<defs>
<clipPath id="clip0_13_27">
<rect width="24" height="24" fill="white"/>
</clipPath>
</defs>
</svg>
